<mxfile host="app.diagrams.net" modified="2021-04-16T01:35:56.004Z" agent="5.0 (Windows NT 10.0; Win64; x64) AppleWebKit/537.36 (KHTML, like Gecko) Chrome/89.0.4389.90 Safari/537.36" etag="Bq3-O1Z6f19IR7YsdCbS" version="14.6.0" type="github" pages="2">
  <diagram id="wwWAyJp2xVjXQqh5jRBN" name="流">
    <mxGraphModel dx="3903" dy="1931" grid="1" gridSize="10" guides="1" tooltips="1" connect="1" arrows="1" fold="1" page="1" pageScale="1" pageWidth="827" pageHeight="1169" math="0" shadow="0">
      <root>
        <mxCell id="0" />
        <mxCell id="1" parent="0" />
        <mxCell id="esGS83GV0cIx577Siufx-3" style="edgeStyle=orthogonalEdgeStyle;rounded=0;orthogonalLoop=1;jettySize=auto;html=1;" edge="1" parent="1" source="esGS83GV0cIx577Siufx-1" target="esGS83GV0cIx577Siufx-2">
          <mxGeometry relative="1" as="geometry" />
        </mxCell>
        <mxCell id="esGS83GV0cIx577Siufx-1" value="int数组 转 list&amp;lt;int&amp;gt;" style="rounded=0;whiteSpace=wrap;html=1;direction=south;" vertex="1" parent="1">
          <mxGeometry x="-1760" y="50" width="210" height="70" as="geometry" />
        </mxCell>
        <mxCell id="esGS83GV0cIx577Siufx-2" value="&lt;pre style=&quot;background-color: rgb(255 , 255 , 255) ; font-family: &amp;#34;consolas&amp;#34; ; font-size: 12pt&quot;&gt;List&amp;lt;Integer&amp;gt; collect = IntStream.&lt;span style=&quot;font-style: italic&quot;&gt;of&lt;/span&gt;(nums).boxed().collect(Collectors.&lt;span style=&quot;font-style: italic&quot;&gt;toList&lt;/span&gt;());&lt;br&gt;&lt;/pre&gt;" style="rounded=0;whiteSpace=wrap;html=1;" vertex="1" parent="1">
          <mxGeometry x="-1460" y="-10" width="720" height="60" as="geometry" />
        </mxCell>
      </root>
    </mxGraphModel>
  </diagram>
  <diagram id="KUFJvERGMkK-y7g1mTnE" name="工具">
    <mxGraphModel dx="2249" dy="1931" grid="1" gridSize="10" guides="1" tooltips="1" connect="1" arrows="1" fold="1" page="1" pageScale="1" pageWidth="827" pageHeight="1169" math="0" shadow="0">
      <root>
        <mxCell id="7vNY10n2lX80GKwiquIR-0" />
        <mxCell id="7vNY10n2lX80GKwiquIR-1" parent="7vNY10n2lX80GKwiquIR-0" />
        <mxCell id="7vNY10n2lX80GKwiquIR-4" style="edgeStyle=orthogonalEdgeStyle;rounded=0;orthogonalLoop=1;jettySize=auto;html=1;exitX=1;exitY=0.5;exitDx=0;exitDy=0;" edge="1" parent="7vNY10n2lX80GKwiquIR-1" source="7vNY10n2lX80GKwiquIR-2" target="7vNY10n2lX80GKwiquIR-3">
          <mxGeometry relative="1" as="geometry" />
        </mxCell>
        <mxCell id="7vNY10n2lX80GKwiquIR-2" value="统计运行时间和内存消耗" style="rounded=0;whiteSpace=wrap;html=1;" vertex="1" parent="7vNY10n2lX80GKwiquIR-1">
          <mxGeometry x="-60" y="60" width="120" height="60" as="geometry" />
        </mxCell>
        <mxCell id="7vNY10n2lX80GKwiquIR-3" value="&lt;pre style=&quot;background-color: #ffffff ; color: #000000 ; font-family: &amp;quot;consolas&amp;quot; ; font-size: 12.0pt&quot;&gt;&lt;span style=&quot;color: #808080 ; font-style: italic&quot;&gt;/*&lt;/span&gt;&lt;span style=&quot;color: #808080 ; font-style: italic ; font-family: &amp;quot;arial&amp;quot;&quot;&gt;计算某一段程序消耗的内存和时间&lt;/span&gt;&lt;span style=&quot;color: #808080 ; font-style: italic&quot;&gt;*/&lt;br&gt;&lt;/span&gt;Runtime r = Runtime.&lt;span style=&quot;font-style: italic&quot;&gt;getRuntime&lt;/span&gt;();&lt;br&gt;r.gc();&lt;span style=&quot;color: #808080 ; font-style: italic&quot;&gt;//&lt;/span&gt;&lt;span style=&quot;color: #808080 ; font-style: italic ; font-family: &amp;quot;arial&amp;quot;&quot;&gt;计算内存前先垃圾回收一次&lt;br&gt;&lt;/span&gt;&lt;span style=&quot;color: #000080 ; font-weight: bold&quot;&gt;long &lt;/span&gt;start = System.&lt;span style=&quot;font-style: italic&quot;&gt;currentTimeMillis&lt;/span&gt;();&lt;span style=&quot;color: #808080 ; font-style: italic&quot;&gt;//&lt;/span&gt;&lt;span style=&quot;color: #808080 ; font-style: italic ; font-family: &amp;quot;arial&amp;quot;&quot;&gt;开始&lt;/span&gt;&lt;span style=&quot;color: #808080 ; font-style: italic&quot;&gt;Time&lt;br&gt;&lt;/span&gt;&lt;span style=&quot;color: #000080 ; font-weight: bold&quot;&gt;long &lt;/span&gt;startMem = r.freeMemory(); &lt;span style=&quot;color: #808080 ; font-style: italic&quot;&gt;// &lt;/span&gt;&lt;span style=&quot;color: #808080 ; font-style: italic ; font-family: &amp;quot;arial&amp;quot;&quot;&gt;开始&lt;/span&gt;&lt;span style=&quot;color: #808080 ; font-style: italic&quot;&gt;Memory&lt;br&gt;&lt;/span&gt;&lt;span style=&quot;color: #808080 ; font-style: italic&quot;&gt;&lt;br&gt;&lt;/span&gt;&lt;span style=&quot;font-style: italic&quot;&gt;permute&lt;/span&gt;(&lt;span style=&quot;color: #000080 ; font-weight: bold&quot;&gt;new int&lt;/span&gt;[]{&lt;span style=&quot;color: #0000ff&quot;&gt;1&lt;/span&gt;, &lt;span style=&quot;color: #0000ff&quot;&gt;2&lt;/span&gt;, &lt;span style=&quot;color: #0000ff&quot;&gt;5&lt;/span&gt;, &lt;span style=&quot;color: #0000ff&quot;&gt;7&lt;/span&gt;, &lt;span style=&quot;color: #0000ff&quot;&gt;9&lt;/span&gt;});&lt;span style=&quot;color: #808080 ; font-style: italic&quot;&gt;//&lt;/span&gt;&lt;span style=&quot;color: #808080 ; font-style: italic ; font-family: &amp;quot;arial&amp;quot;&quot;&gt;被执行的程序&lt;br&gt;&lt;/span&gt;&lt;span style=&quot;color: #808080 ; font-style: italic ; font-family: &amp;quot;arial&amp;quot;&quot;&gt;&lt;br&gt;&lt;/span&gt;&lt;span style=&quot;color: #000080 ; font-weight: bold&quot;&gt;long &lt;/span&gt;endMem =r.freeMemory(); &lt;span style=&quot;color: #808080 ; font-style: italic&quot;&gt;// &lt;/span&gt;&lt;span style=&quot;color: #808080 ; font-style: italic ; font-family: &amp;quot;arial&amp;quot;&quot;&gt;末尾&lt;/span&gt;&lt;span style=&quot;color: #808080 ; font-style: italic&quot;&gt;Memory&lt;br&gt;&lt;/span&gt;&lt;span style=&quot;color: #000080 ; font-weight: bold&quot;&gt;long &lt;/span&gt;end = System.&lt;span style=&quot;font-style: italic&quot;&gt;currentTimeMillis&lt;/span&gt;();&lt;span style=&quot;color: #808080 ; font-style: italic&quot;&gt;//&lt;/span&gt;&lt;span style=&quot;color: #808080 ; font-style: italic ; font-family: &amp;quot;arial&amp;quot;&quot;&gt;末尾&lt;/span&gt;&lt;span style=&quot;color: #808080 ; font-style: italic&quot;&gt;Time&lt;br&gt;&lt;/span&gt;&lt;span style=&quot;color: #808080 ; font-style: italic&quot;&gt;//&lt;/span&gt;&lt;span style=&quot;color: #808080 ; font-style: italic ; font-family: &amp;quot;arial&amp;quot;&quot;&gt;输出&lt;br&gt;&lt;/span&gt;System.&lt;span style=&quot;color: #660e7a ; font-weight: bold ; font-style: italic&quot;&gt;out&lt;/span&gt;.println(&lt;span style=&quot;color: #008000 ; font-weight: bold&quot;&gt;&quot;TimeCost: &quot;&lt;/span&gt;+String.&lt;span style=&quot;font-style: italic&quot;&gt;valueOf&lt;/span&gt;(end - start)+&lt;span style=&quot;color: #008000 ; font-weight: bold&quot;&gt;&quot;ms&quot;&lt;/span&gt;);&lt;br&gt;System.&lt;span style=&quot;color: #660e7a ; font-weight: bold ; font-style: italic&quot;&gt;out&lt;/span&gt;.println(&lt;span style=&quot;color: #008000 ; font-weight: bold&quot;&gt;&quot;MemoryCost: &quot;&lt;/span&gt;+String.&lt;span style=&quot;font-style: italic&quot;&gt;valueOf&lt;/span&gt;((startMem- endMem)/&lt;span style=&quot;color: #0000ff&quot;&gt;1024&lt;/span&gt;)+&lt;span style=&quot;color: #008000 ; font-weight: bold&quot;&gt;&quot;KB&quot;&lt;/span&gt;);&lt;/pre&gt;" style="text;whiteSpace=wrap;html=1;" vertex="1" parent="7vNY10n2lX80GKwiquIR-1">
          <mxGeometry x="150" y="-140" width="550" height="230" as="geometry" />
        </mxCell>
        <mxCell id="7vNY10n2lX80GKwiquIR-6" style="edgeStyle=orthogonalEdgeStyle;rounded=0;orthogonalLoop=1;jettySize=auto;html=1;entryX=0;entryY=0.75;entryDx=0;entryDy=0;" edge="1" parent="7vNY10n2lX80GKwiquIR-1" source="7vNY10n2lX80GKwiquIR-5" target="7vNY10n2lX80GKwiquIR-7">
          <mxGeometry relative="1" as="geometry">
            <mxPoint x="150" y="330" as="targetPoint" />
          </mxGeometry>
        </mxCell>
        <mxCell id="7vNY10n2lX80GKwiquIR-5" value="交换数组元素位置" style="rounded=0;whiteSpace=wrap;html=1;" vertex="1" parent="7vNY10n2lX80GKwiquIR-1">
          <mxGeometry x="-60" y="280" width="120" height="60" as="geometry" />
        </mxCell>
        <mxCell id="7vNY10n2lX80GKwiquIR-7" value="&lt;pre style=&quot;background-color: rgb(255 , 255 , 255) ; font-family: &amp;#34;consolas&amp;#34; ; font-size: 12pt&quot;&gt;Collections.&lt;span style=&quot;font-style: italic&quot;&gt;swap&lt;/span&gt;(collect,&lt;span style=&quot;color: #0000ff&quot;&gt;0&lt;/span&gt;,&lt;span style=&quot;color: #0000ff&quot;&gt;2&lt;/span&gt;);&lt;/pre&gt;" style="rounded=0;whiteSpace=wrap;html=1;" vertex="1" parent="7vNY10n2lX80GKwiquIR-1">
          <mxGeometry x="150" y="310" width="300" height="50" as="geometry" />
        </mxCell>
        <mxCell id="7vNY10n2lX80GKwiquIR-8" value="hutool的StrUtil判空" style="rounded=0;whiteSpace=wrap;html=1;" vertex="1" parent="7vNY10n2lX80GKwiquIR-1">
          <mxGeometry x="-60" y="480" width="120" height="60" as="geometry" />
        </mxCell>
        <mxCell id="7vNY10n2lX80GKwiquIR-9" value="threadLocal要及时关闭, 避免内存泄漏" style="rounded=0;whiteSpace=wrap;html=1;" vertex="1" parent="7vNY10n2lX80GKwiquIR-1">
          <mxGeometry x="-50" y="620" width="120" height="60" as="geometry" />
        </mxCell>
      </root>
    </mxGraphModel>
  </diagram>
</mxfile>
